<svg version="1.1" xmlns="http://www.w3.org/2000/svg" xmlns:xlink="http://www.w3.org/1999/xlink">
    <defs>
        <symbol id="logo-same-faces" viewBox="0 0 1800 1850">
            <title>same-faces</title>
            <path d="m 747.26131,1812.7273 c -28.2596,-21.9101 -41.8059,-48.2799 -48.8319,-95.0581 -4.7858,-31.8632 -4.8293,-33.2856 -5.2633,-172.0782 -0.5883,-188.1437 0.3981,-202.3102 16.3177,-234.3483 18.2977,-36.8238 48.6998,-62.3676 91.0965,-76.5392 25.6452,-8.5722 50.13078,-11.7159 84.19128,-10.8092 46.7121,1.2435 80.3747,10.4676 111.1461,30.4559 33.73741,21.915 50.19981,45.8868 58.39431,85.0312 5.9362,28.3563 7.5832,52.7408 7.5958,112.4596 l 0.01,46.75 h -77.91981 -77.9198 l -0.4497,-71.75 c -0.3844,-61.3279 -0.6891,-72.9604 -2.0974,-80.083 -1.9273,-9.7468 -3.4195,-12.9847 -7.6085,-16.5095 -3.9884,-3.356 -8.8587,-4.645 -17.5767,-4.6519 -13.373,-0.011 -21.6615,5.3066 -24.8127,15.9176 -3.9977,13.462 -4.1154,19.0538 -4.1154,195.5768 0,177.0501 0.135,183.358 4.1833,195.4522 3.6466,10.894 10.5981,15.4177 23.8167,15.4988 6.598,0.04 8.8751,-0.3891 12.9933,-2.451 13.5192,-6.7686 15.5002,-19.578 15.5043,-100.25 v -48.75 h 78.1238 78.12381 l -0.5391,42.25 c -0.999,78.2931 -7.0904,112.1611 -24.984,138.9115 -21.098,31.5407 -59.91821,56.7783 -102.72451,66.7826 -61.70056,11.9635 -138.54702,4.4285 -186.65408,-31.8078 z m 718.31759,-10.0794 c -15.3852,-14.8185 -24.06,-30.2135 -29.7744,-52.8399 -6.2815,-24.8719 -8.8868,-54.0273 -8.8868,-99.4499 v -28.7671 h 72.3919 72.392 l 0.5135,48.25 c 0.5666,53.2241 1.2173,60.1958 6.4018,68.5815 7.3469,11.8833 28.4368,13.5367 39.7423,3.1157 8.505,-7.8397 12.4759,-21.9522 12.5063,-44.4472 0.03,-22.3688 -2.2967,-39.577 -7.2342,-53.5 -2.8065,-7.9138 -3.6074,-9.087 -11.614,-17.0122 -10.6742,-10.5657 -26.6202,-22.5466 -57.5996,-43.2768 -74.4283,-49.8047 -91.3529,-63.2168 -104.416,-82.7463 -18.4206,-27.5393 -26.1118,-55.0979 -27.7001,-99.2548 -1.3585,-37.7648 3.4594,-75.8728 12.5748,-99.4629 13.5615,-35.0966 50.0693,-61.7867 99.3586,-72.639 19.9939,-4.4022 28.385,-5.1117 59.6827,-5.0467 25.2238,0.052 31.5294,0.3789 43.5,2.2521 25.0343,3.9176 41.7762,8.9069 61.4447,18.311 28.5817,13.6659 46.561,30.2766 55.048,50.8579 8.3687,20.2943 12.9508,57.7696 12.9935,106.2677 l 0.014,15.75 h -73 -73 l -0.035,-31.75 c -0.045,-40.6786 -1.256,-48.4634 -8.6258,-55.4364 -3.9061,-3.6958 -7.3748,-4.8136 -14.9365,-4.8136 -11.2017,0 -18.3257,4.6624 -23.4504,15.3474 -4.1724,8.6994 -5.273,17.4068 -4.6874,37.0867 0.8147,27.3845 4.6578,38.45 17.6716,50.8828 9.7976,9.3602 15.9285,13.6643 42.6078,29.9123 49.4414,30.1102 81.822,53.4162 103.8143,74.7205 21.5927,20.9171 31.9775,40.0879 39.0296,72.0503 7.3747,33.4243 9.3851,82.543 4.9933,122 -5.1901,46.6293 -17.3049,68.5416 -49.8816,90.222 -23.9155,15.9162 -56.9243,27.229 -89.5,30.6735 -60.4842,6.5488 -132.7174,-9.0053 -172.3389,-45.8386 z M 22.917713,1536.591 v -301 h 132.499997 132.5 v 60.5 60.5 h -54 -54 v 57 57 h 48 48 v 57 57 h -48 -48 v 126.5 126.5 h -78.5 -78.499997 z m 252.999997,299.1528 c 0,-1.0159 17.775,-136.3296 39.5,-300.6971 21.725,-164.3674 39.5,-298.9881 39.5,-299.1571 0,-0.1689 50.9407,-0.1927 113.2015,-0.053 l 113.2016,0.2543 44.1841,296.8344 c 24.3013,163.2589 44.4659,298.5964 44.8103,300.75 l 0.6261,3.9156 h -79.9665 -79.9665 l -0.5056,-3.25 c -0.2781,-1.7875 -1.892,-23.275 -3.5865,-47.75 -1.6944,-24.475 -3.3494,-47.3125 -3.6777,-50.75 l -0.597,-6.25 h -27.8006 -27.8007 l -0.5619,4.25 c -0.7674,5.8032 -8.5606,97.8748 -8.5606,101.1373 v 2.6128 h -81 c -78.0998,0 -81,-0.066 -81,-1.8472 z m 222,-214.9586 c 0,-0.9932 -1.1162,-11.9057 -2.4805,-24.25 -5.5136,-49.889 -12.7177,-126.6144 -18.5343,-197.3934 -1.1277,-13.7221 -2.2607,-25.1596 -2.5178,-25.4167 -0.2571,-0.2571 -0.4674,0.086 -0.4674,0.7617 0,0.6761 -2.0082,16.1636 -4.4627,34.4167 -6.1847,45.993 -13.8809,107.9313 -17.4917,140.7708 -2.4762,22.521 -7.0237,69.129 -7.0413,72.1667 0,0.4125 11.9207,0.75 26.4957,0.75 24.8832,0 26.5,-0.1102 26.5,-1.8058 z m 620.99999,-84.1942 v -301 h 130.5 130.5 v 60.5 60.5 h -52 -52 v 57 57 h 48.5 48.5 v 57 57 h -48.5 -48.5 v 66.5 66.5 h 57 57 v 60 60 h -135.5 -135.5 z M 201.91771,1214.0029 c -50.3931,-4.3501 -83.15841,-14.3838 -113.999997,-34.91 -33.3337,-22.1847 -48.7548,-46.5541 -56.4912,-89.2705 -4.428,-24.4499 -5.6024,-40.2251 -6.2145,-83.4814 l -0.5767,-40.74998 h 79.641197 79.6412 l 0.02,50.24998 c 0.019,49.2692 0.5073,59.0122 3.4707,69.3128 2.2345,7.767 5.2763,11.5709 11.8985,14.8795 5.0486,2.5223 7.0467,2.945 14,2.9613 17.6295,0.041 27.5587,-9.3646 32.3487,-30.6441 2.0113,-8.9349 2.1887,-40.1926 0.3138,-55.2595 -1.6504,-13.2621 -5.1604,-26.79158 -8.8432,-34.0874 -6.3644,-12.60768 -25.451,-27.91008 -83.7525,-67.14718 -74.854097,-50.377 -89.766997,-62.4614 -104.126497,-84.3773 -14.7649,-22.5346 -22.912,-45.6237 -27.4833,-77.8881 -2.0262,-14.3009 -1.7363,-70.4963 0.4527,-87.7597 5.9723,-47.0994 18.4812,-73.4571 44.9603,-94.7367 24.4972,-19.687 53.880587,-31.595 92.944097,-37.6669 12.4266,-1.9315 18.2868,-2.2242 44.7969,-2.2377 32.9323,-0.017 44.6204,1.0105 68.3336,6.006 34.6982,7.3096 69.4498,24.2897 88.5644,43.2738 24.6065,24.4386 32.143,53.7506 33.7773,131.3712 l 0.6475,30.75 h -79.5699 -79.5699 l -0.4533,-37.75 c -0.3716,-30.9401 -0.7544,-38.9103 -2.1223,-44.1818 -2.2238,-8.5696 -4.8382,-12.5314 -10.4444,-15.8271 -4.1021,-2.4114 -5.6855,-2.7397 -13.163,-2.7291 -9.9668,0.014 -14.3909,1.8576 -20.3882,8.4959 -7.6651,8.4843 -10.6138,20.4927 -10.6078,43.1999 0,16.4611 1.6757,29.6578 4.9664,39.2123 5.9648,17.319 18.0493,28.2216 58.349,52.6425 44.5038,26.9686 81.1091,52.441 105.3318,73.2969 31.7891,27.3707 46.0584,51.7522 54.2179,92.6405 10.0627,50.42548 9.179,123.93368 -1.9801,164.71608 -8.1475,29.7763 -26.5002,51.2862 -59.4917,69.7261 -23.7797,13.2911 -51.0369,21.8587 -82.8973,26.0567 -11.5126,1.5169 -47.1221,2.7226 -56.5,1.913 z m 222.3896,-16.1619 c 0.3018,-1.5125 19.7032,-148.1 43.1143,-325.74998 23.4111,-177.65 42.7836,-324.0125 43.0499,-325.25 l 0.4843,-2.25 h 123.393 123.3931 l 0.6047,3.75 c 2.5345,15.7178 96.56928,649.13978 96.57008,650.49998 9e-4,1.6533 -4.806,1.75 -86.95368,1.75 h -86.9547 l -0.5048,-3.25 c -0.2777,-1.7875 -2.1023,-26.425 -4.0548,-54.75 -1.9525,-28.325 -3.7983,-53.4125 -4.1018,-55.75 l -0.5518,-4.25 h -30.4387 c -16.7413,0 -30.4387,0.1836 -30.4387,0.408 0,0.2244 -2.2492,26.4369 -4.9982,58.25 -2.749,31.8131 -4.999,58.1795 -5,58.592 -10e-4,0.4125 -39.8626,0.75 -88.5813,0.75 h -88.5794 z m 242.3126,-236.49998 c -4.2283,-38.4335 -9.4575,-89.4868 -12.6751,-123.75 -3.7836,-40.2903 -11.9102,-134.5231 -12.1292,-140.6462 l -0.1021,-2.8538 -0.8935,3 c -1.0677,3.5846 -12.1034,87.0754 -18.3729,139 -7.5504,62.5334 -14.0974,127.7719 -13.0007,129.5464 0.3515,0.5688 12.1233,0.9536 29.1702,0.9536 h 28.5809 z m 217.29778,-88.75 v -328 h 110.4205 110.42061 l 0.5733,2.75 c 2.6918,12.912 15.2074,99.1493 34.0691,234.75 4.7432,34.1 8.9488,62.8236 9.3458,63.8304 0.3975,1.0082 9.1861,-65.0209 19.566,-147 10.3644,-81.8568 19.0717,-150.0679 19.3495,-151.5804 l 0.5052,-2.75 h 111.375 111.375 v 328 327.99998 h -74.9977 -74.9978 l -0.2522,-217.8124 -0.2523,-217.81238 -28.8739,215.06238 c -15.8806,118.2843 -29.0994,216.2999 -29.375,217.8124 l -0.5011,2.75 h -52.7637 -52.7637 l -0.5869,-3.25 c -0.3228,-1.7875 -14.3568,-98.1964 -31.1867,-214.2421 -16.8299,-116.04568 -30.7909,-211.18318 -31.0244,-211.41668 -0.2335,-0.2335 -0.4246,96.1754 -0.4246,214.2421 V 1200.591 h -74.50001 -74.5 z m 596.00001,0 v -328 h 142.5 142.5 v 65.5 65.5 h -57 -57 v 62 62 h 53 53 v 62.5 62.5 h -53 -53 v 72.5001 72.49988 h 62.5 62.5 v 65.5 65.5 h -148 -148 z M 27.917713,524.07442 c 0,-11.1649 14.3944,-87.1826 18.4961,-97.6789 0.7942,-2.0325 2.6169,-9.6825 4.0503,-17 4.7374,-24.1831 11.1178,-47.0986 15.6017,-56.0339 3.3442,-6.6641 7.4965,-7.9828 66.851897,-21.2314 32.6954,-7.2979 57.0266,-15.4627 70.6084,-23.6942 3.0274,-1.8347 10.0914,-7.54 15.6979,-12.6782 7.7375,-7.0913 12.1751,-10.2888 18.4169,-13.2702 4.5227,-2.1604 8.735,-4.8843 9.3606,-6.0533 0.7127,-1.3316 0.9901,-5.7139 0.7428,-11.7343 -0.3375,-8.2149 -0.8462,-10.5521 -3.5064,-16.109 -3.6314,-7.5859 -5.6156,-13.6204 -7.8913,-24 -1.9089,-8.7062 -5.372,-16.2426 -9.4201,-20.5 -1.5688,-1.65 -3.9729,-5.5538 -5.3424,-8.675 -1.3695,-3.1213 -4.2772,-8.3068 -6.4617,-11.5235 -7.1885,-10.5856 -7.5287,-12.4284 -7.989,-43.2706 -0.5621,-37.65979 1.5941,-56.338954 8.58,-74.329975 8.2227,-21.1761 28.8535,-42.462249 52.3309,-53.993349 17.4261,-8.5589996 31.2069,-11.87707963 49.3734,-11.88796963 13.4823,-0.008 18.208,1.19701003 24.6254,6.27970003 5.2834,4.1845096 15.9472,8.5543796 24.0239,9.8446496 24.8913,3.97639 45.6686,22.017649 50.4265,43.786199 0.9604,4.39399 1.6652,15.19246 2.0082,30.769811 0.6265,28.447234 1.4137,35.225334 4.59,39.521634 6.5701,8.8868 -1.8542,43.5225 -14.6568,60.2604 -4.846,6.3355 -9.5172,15.3336 -9.5172,18.3327 0,1.3264 -1.8425,7.2432 -4.0944,13.1485 -7.2129,18.9144 -8.9056,25.5989 -8.9056,35.1686 0,15.2571 4.2821,23.6413 15.2427,29.8443 5.0749,2.8721 8.9317,6.6295 20.8509,20.3133 7.7885,8.9417 11.551,11.2399 27.4784,16.7841 7.6604,2.6665 25.628,9.3565 39.928,14.8667 14.3,5.5102 28.3294,10.773 31.1766,11.6951 7.2036,2.3331 21.4316,11.1802 27.3909,17.0318 6.7866,6.6641 10.7265,14.9673 11.8794,25.0357 1.056,9.2217 1.0588,9.2313 6.1253,20.4972 2.1024,4.675 4.9423,12.8253 6.3109,18.1118 2.6326,10.1695 8.2229,45.3364 11.5866,72.8882 1.108,9.075 2.2826,18.1875 2.6103,20.25 l 0.5958,3.75 H 307.50561 27.917713 Z m 589.999997,-1.9617 c 0,-12.1992 10.9697,-71.5065 17.4721,-94.462 1.9381,-6.8422 4.4502,-17.4172 5.5825,-23.5 4.221,-22.6761 12.6933,-49.5336 17.108,-54.2328 2.694,-2.8677 12.0229,-5.8778 33.3374,-10.7568 8.8,-2.0143 23.875,-5.4685 33.5,-7.6759 19.8411,-4.5503 40.6195,-10.5721 51.7864,-15.008 11.7994,-4.6872 20.1482,-10.0721 30.8033,-19.8677 6.9773,-6.4144 12.3231,-10.3205 18.469,-13.4947 4.7572,-2.457 9.2516,-5.1929 9.9876,-6.0797 3.2562,-3.9235 1.9997,-20.1391 -2.1752,-28.072 -3.0326,-5.7624 -5.7197,-13.8221 -7.8481,-23.5398 -2.2074,-10.0783 -4.7971,-15.6124 -10.1656,-21.7231 -2.1216,-2.415 -3.8574,-5.0248 -3.8574,-5.7997 0,-1.9534 -2.5325,-6.7585 -7.2051,-13.6706 -5.9337,-8.7779 -6.8238,-12.2872 -8.0232,-31.6336 -1.2198,-19.6769 0.056,-49.99615 2.7576,-65.544624 5.2813,-30.392681 22.9996,-54.846241 51.71028,-71.36713 20.2175,-11.6337196 45.2232,-17.5072696 64.259,-15.09375963 7.9516,1.00816003 11.8218,2.57635003 17.5014,7.09147003 4.7335,3.7630196 12.6055,6.7298296 23.9841,9.0391496 14.1616,2.87416 24.3898,8.20419 34.0956,17.767589 13.85331,13.65009 16.88411,23.52 16.92061,55.101971 0.026,22.230934 1.5481,36.844134 4.2175,40.484234 4.1505,5.6598 3.3464,21.1993 -1.8867,36.4625 -3.4717,10.1256 -6.2986,15.5581 -13.85711,26.6286 -3.4989,5.1248 -6.8527,11.2543 -7.4528,13.6212 -1.2518,4.9375 -5.3662,17.3573 -9.9556,30.0525 -7.9865,22.0921 -4.07,41.2366 10.1515,49.6219 3.1444,1.854 8.3194,6.1279 11.50001,9.4976 20.343,21.5522 22.2481,23.1515 30.9199,25.9562 4.4754,1.4474 17.7504,6.2697 29.5,10.7161 11.7497,4.4465 29.238,11.0639 38.863,14.7053 34.0483,12.8817 46.504,24.0418 49.0189,43.9199 1.0936,8.6439 3.089,15.4945 6.5055,22.334 4.8756,9.7604 8.7016,26.0804 12.8942,55 3.149,21.7215 7.5814,55.7342 7.5814,58.1773 0,1.7592 -9.7131,1.8227 -279.00001,1.8227 H 617.91771 Z m 214,-66.0217 v -52.5 h 10.029 10.02898 l -0.279,-13.25 -0.279,-13.25 -37.24998,-0.2622 -37.25,-0.2622 v 13.5122 13.5122 h 10 10 v 52.5 52.5 h 17.5 17.5 z m 61.99998,25 v -27.5 h 5 5 v 27.5 27.5 h 17 17 v -66 -66 h -17 -17 v 23.5 23.5 h -5 -5 v -23.5 -23.5 h -17 -17 v 66 66 h 17 17 z m 117.00001,14.5 v -13 h -12.50001 -12.5 v -14.5 -14.5 h 10.5 10.50001 v -12.5 -12.5 h -10.50001 -10.5 v -12.5 -12.5 h 11.529 11.52911 l -0.2791,-13.25 -0.279,-13.25 -28.25001,-0.2656 -28.25,-0.2656 v 66.0156 66.0156 h 29.5 29.50001 z m 196.3065,23.75 c 0.939,-14.4679 13.863,-80.6748 18.2784,-93.6362 0.8644,-2.5376 2.8999,-11.3638 4.5232,-19.6138 5.4255,-27.5734 12.6281,-50.9364 17.261,-55.9897 1.216,-1.3263 5.5657,-3.4253 10.1309,-4.8888 7.5405,-2.4174 14.2148,-4.0233 54.5,-13.1133 19.6369,-4.431 39.9328,-10.1858 51.2744,-14.5387 14.0047,-5.3749 21.4565,-9.8731 31.0962,-18.7705 10.7618,-9.9333 14.9101,-12.9167 23.7988,-17.1165 8.2963,-3.9198 9.23,-5.8451 8.6561,-17.8486 -0.3633,-7.6 -0.9069,-9.7545 -4.0996,-16.2479 -2.046,-4.1613 -4.824,-12.3714 -6.255,-18.486 -3.0594,-13.0724 -5.7634,-19.3039 -11.2196,-25.8561 -2.224,-2.6709 -4.2886,-6.0806 -4.5879,-7.5772 -0.2994,-1.4966 -2.8745,-6.2051 -5.7226,-10.4633 -7.984,-11.9372 -8.2055,-13.0701 -8.7015,-44.5228 -0.931,-59.030314 5.5054,-81.625305 30.3202,-106.440165 21.8405,-21.840419 50.1157,-33.80295863 79.9405,-33.82082863 13.3977,-0.008 18.1134,1.17631003 24.2561,6.09188003 5.5122,4.4109196 14.5083,8.0578396 25.2211,10.2243596 26.6396,5.38748 46.41,23.532989 49.9711,45.864119 0.5701,3.575 1.0517,12.35 1.0702,19.500001 0.019,7.15 0.4565,19.868514 0.9733,28.263334 0.8496,13.8025 1.1944,15.6983 3.6024,19.8072 2.5306,4.3182 2.638,5.05 2.1624,14.7367 -0.3828,7.7973 -1.2632,12.5429 -3.7463,20.1928 -3.9113,12.0501 -5.593,15.4697 -13.0317,26.5 -7.1696,10.6313 -8.5281,13.3774 -9.3875,18.9761 -0.3779,2.4619 -2.8865,10.1119 -5.5747,17 -6.4115,16.4285 -7.2632,19.8999 -7.3667,30.0239 -0.1504,14.708 3.8959,22.8943 14.3275,28.9867 4.4529,2.6006 8.9987,6.4214 12.7252,10.6957 17.2984,19.8412 19.3609,21.4404 33.7976,26.2058 5.5,1.8154 23.275,8.3758 39.5,14.5786 16.225,6.2028 31.7776,12.0183 34.5614,12.9232 7.2395,2.3535 19.7172,10.0476 26.5436,16.3676 7.7753,7.1987 11.4496,14.8072 12.8109,26.5285 0.7813,6.7274 2.0701,11.1968 5.4999,19.0736 2.4636,5.658 5.4145,13.6292 6.5574,17.7138 2.6251,9.382 7.22,37.5285 11.0853,67.9052 1.6462,12.9367 3.2565,24.9838 3.5786,26.7713 l 0.5855,3.25 h -279.7582 -279.7582 z"></path>
        </symbol>
        <symbol id="icon-youtube-play" viewBox="0 0 28 28">
            <title>youtube-play</title>
            <path d="M11.109 17.625l7.562-3.906-7.562-3.953v7.859zM14 4.156c5.891 0 9.797 0.281 9.797 0.281 0.547 0.063 1.75 0.063 2.812 1.188 0 0 0.859 0.844 1.109 2.781 0.297 2.266 0.281 4.531 0.281 4.531v2.125s0.016 2.266-0.281 4.531c-0.25 1.922-1.109 2.781-1.109 2.781-1.062 1.109-2.266 1.109-2.812 1.172 0 0-3.906 0.297-9.797 0.297v0c-7.281-0.063-9.516-0.281-9.516-0.281-0.625-0.109-2.031-0.078-3.094-1.188 0 0-0.859-0.859-1.109-2.781-0.297-2.266-0.281-4.531-0.281-4.531v-2.125s-0.016-2.266 0.281-4.531c0.25-1.937 1.109-2.781 1.109-2.781 1.062-1.125 2.266-1.125 2.812-1.188 0 0 3.906-0.281 9.797-0.281v0z"></path>
        </symbol>

        <symbol id="icon-twitter-square" viewBox="0 0 24 28">
            <title>twitter-square</title>
            <path d="M20 9.531c-0.594 0.266-1.219 0.438-1.891 0.531 0.688-0.406 1.203-1.062 1.453-1.828-0.641 0.375-1.344 0.656-2.094 0.797-0.594-0.641-1.453-1.031-2.391-1.031-1.813 0-3.281 1.469-3.281 3.281 0 0.25 0.016 0.516 0.078 0.75-2.734-0.141-5.156-1.437-6.781-3.437-0.281 0.484-0.453 1.062-0.453 1.656 0 1.141 0.531 2.141 1.422 2.734-0.547-0.016-1.062-0.172-1.563-0.406v0.031c0 1.594 1.203 2.922 2.703 3.219-0.281 0.078-0.5 0.125-0.797 0.125-0.203 0-0.406-0.031-0.609-0.063 0.422 1.297 1.625 2.25 3.063 2.281-1.125 0.875-2.531 1.406-4.078 1.406-0.266 0-0.531-0.016-0.781-0.047 1.453 0.922 3.172 1.469 5.031 1.469 6.031 0 9.344-5 9.344-9.344 0-0.141 0-0.281-0.016-0.422 0.641-0.453 1.203-1.031 1.641-1.703zM24 6.5v15c0 2.484-2.016 4.5-4.5 4.5h-15c-2.484 0-4.5-2.016-4.5-4.5v-15c0-2.484 2.016-4.5 4.5-4.5h15c2.484 0 4.5 2.016 4.5 4.5z"></path>
        </symbol>
        <symbol id="icon-facebook-square" viewBox="0 0 24 28">
            <title>facebook-square</title>
            <path d="M19.5 2c2.484 0 4.5 2.016 4.5 4.5v15c0 2.484-2.016 4.5-4.5 4.5h-2.938v-9.297h3.109l0.469-3.625h-3.578v-2.312c0-1.047 0.281-1.75 1.797-1.75l1.906-0.016v-3.234c-0.328-0.047-1.469-0.141-2.781-0.141-2.766 0-4.672 1.687-4.672 4.781v2.672h-3.125v3.625h3.125v9.297h-8.313c-2.484 0-4.5-2.016-4.5-4.5v-15c0-2.484 2.016-4.5 4.5-4.5h15z"></path>
        </symbol>
        <symbol id="icon-instagram" viewBox="0 0 24 28">
            <title>instagram</title>
            <path d="M16 14c0-2.203-1.797-4-4-4s-4 1.797-4 4 1.797 4 4 4 4-1.797 4-4zM18.156 14c0 3.406-2.75 6.156-6.156 6.156s-6.156-2.75-6.156-6.156 2.75-6.156 6.156-6.156 6.156 2.75 6.156 6.156zM19.844 7.594c0 0.797-0.641 1.437-1.437 1.437s-1.437-0.641-1.437-1.437 0.641-1.437 1.437-1.437 1.437 0.641 1.437 1.437zM12 4.156c-1.75 0-5.5-0.141-7.078 0.484-0.547 0.219-0.953 0.484-1.375 0.906s-0.688 0.828-0.906 1.375c-0.625 1.578-0.484 5.328-0.484 7.078s-0.141 5.5 0.484 7.078c0.219 0.547 0.484 0.953 0.906 1.375s0.828 0.688 1.375 0.906c1.578 0.625 5.328 0.484 7.078 0.484s5.5 0.141 7.078-0.484c0.547-0.219 0.953-0.484 1.375-0.906s0.688-0.828 0.906-1.375c0.625-1.578 0.484-5.328 0.484-7.078s0.141-5.5-0.484-7.078c-0.219-0.547-0.484-0.953-0.906-1.375s-0.828-0.688-1.375-0.906c-1.578-0.625-5.328-0.484-7.078-0.484zM24 14c0 1.656 0.016 3.297-0.078 4.953-0.094 1.922-0.531 3.625-1.937 5.031s-3.109 1.844-5.031 1.937c-1.656 0.094-3.297 0.078-4.953 0.078s-3.297 0.016-4.953-0.078c-1.922-0.094-3.625-0.531-5.031-1.937s-1.844-3.109-1.937-5.031c-0.094-1.656-0.078-3.297-0.078-4.953s-0.016-3.297 0.078-4.953c0.094-1.922 0.531-3.625 1.937-5.031s3.109-1.844 5.031-1.937c1.656-0.094 3.297-0.078 4.953-0.078s3.297-0.016 4.953 0.078c1.922 0.094 3.625 0.531 5.031 1.937s1.844 3.109 1.937 5.031c0.094 1.656 0.078 3.297 0.078 4.953z"></path>
        </symbol>
    </defs>
</svg>
